name analog
datacolumns 19
datarows 35
range 0.0 0.017
endheader
time	ground_force_vx	ground_force_vy	ground_force_vz	ground_force_px	ground_force_py	ground_force_pz	l_ground_force_vx	l_ground_force_vy	l_ground_force_vz	l_ground_force_px	l_ground_force_py	l_ground_force_pz	ground_torque_x	ground_torque_y	ground_torque_z	l_ground_torque_x	l_ground_torque_y	l_ground_torque_z
0.0	-0.0	-0.0	-0.0	-11.981478691101074	53.745635986328125	-431.2327270507813	4.377607822418213	-30.447559356689453	-332.0146484375	-35.54230117797852	16.30813217163086	75.6837158203125	-0.0	-0.0	-0.0	64788.28515625	-14601.3046875	1954.419189453125
0.0005	-0.0	-0.0	-0.0	-12.369253158569336	54.40433883666992	-431.7237548828125	4.497173309326172	-30.263656616210938	-329.9630126953125	-35.46059036254883	16.343172073364258	75.8056640625	-0.0	-0.0	-0.0	64655.69921875	-14749.4228515625	1886.2066650390625
0.001	-0.0	-0.0	-0.0	-12.896803855895996	54.22612762451172	-433.6744689941406	4.9640278816223145	-30.02561378479004	-328.0960693359375	-35.15323257446289	16.257160186767578	75.57685852050781	-0.0	-0.0	-0.0	64061.66015625	-14653.083984375	2062.077880859375
0.0015	-0.0	-0.0	-0.0	-13.059757232666016	54.34247970581055	-434.3956298828125	5.133556365966797	-29.44185256958008	-325.2122802734375	-35.35914611816406	16.315855026245117	75.5451431274414	-0.0	-0.0	-0.0	63875.26953125	-14813.9326171875	1965.6217041015625
0.002	-0.0	-0.0	-0.0	-12.842235565185549	54.90840530395508	-436.31646728515625	4.971807479858398	-29.180912017822266	-325.1817932128906	-35.35895538330078	16.351482391357422	75.91172790527344	-0.0	-0.0	-0.0	63794.91796875	-14929.388671875	2069.929443359375
0.0025	-0.0	-0.0	-0.0	-12.676122665405272	55.05562210083008	-436.8998718261719	5.314567565917969	-28.827672958374023	-322.9652709960937	-35.327674865722656	16.334598541259766	75.54415130615234	-0.0	-0.0	-0.0	63526.76953125	-15019.4599609375	2163.283203125
0.003	-0.0	-0.0	-0.0	-12.547534942626951	54.95811462402344	-437.5564880371094	5.54951810836792	-28.76205062866211	-321.0248718261719	-34.95998001098633	16.046035766601562	75.92830657958984	-0.0	-0.0	-0.0	63131.8125	-15184.1767578125	2300.08544921875
0.0035	-0.0	-0.0	-0.0	-12.757102966308594	55.17605972290039	-438.0665893554688	6.125310897827148	-28.382118225097656	-319.4737548828125	-35.56873321533203	16.284503936767578	75.57750701904297	-0.0	-0.0	-0.0	63060.5390625	-15149.982421875	2321.305908203125
0.004	-0.0	-0.0	-0.0	-12.261857986450195	55.31439971923828	-438.8616638183594	6.595611572265625	-27.856517791748047	-319.6838073730469	-35.197509765625	16.43747329711914	74.9985580444336	-0.0	-0.0	-0.0	62793.859375	-15411.931640625	2568.016357421875
0.0045000000000000005	-0.0	-0.0	-0.0	-12.306557655334473	55.706504821777344	-442.0576171875	6.919441223144531	-28.201128005981445	-318.1993103027344	-35.47906875610352	16.365238189697266	75.71869659423828	-0.0	-0.0	-0.0	62679.91015625	-15548.4892578125	2547.388916015625
0.005	-0.0	-0.0	-0.0	-11.896270751953123	56.44618606567383	-440.2733154296875	7.056725025177002	-28.02891731262207	-316.20904541015625	-35.067718505859375	16.09036636352539	75.9657211303711	-0.0	-0.0	-0.0	62460.91796875	-15971.8359375	2685.419677734375
0.0055	-0.0	-0.0	-0.0	-11.623955726623535	57.3374137878418	-441.6362609863281	7.336519718170166	-28.117277145385746	-315.633056640625	-35.22003173828125	16.230987548828125	74.85718536376953	-0.0	-0.0	-0.0	62429.30078125	-16107.5537109375	2755.279052734375
0.006	-0.0	-0.0	-0.0	-11.503393173217772	56.8168830871582	-446.9640808105469	7.535733222961426	-27.525371551513672	-314.2180480957031	-35.36753845214844	16.396312713623047	76.507568359375	-0.0	-0.0	-0.0	62375.90625	-16370.369140625	2786.787841796875
0.006500000000000001	-0.0	-0.0	-0.0	-11.513032913208008	57.42644500732422	-445.7516784667969	7.545214176177978	-27.728233337402344	-312.9625244140625	-35.2830924987793	15.98794174194336	75.33122253417969	-0.0	-0.0	-0.0	62022.35546875	-16146.8369140625	2856.49365234375
0.007	-0.0	-0.0	-0.0	-11.303325653076172	57.84563446044922	-450.0953369140625	7.430320262908935	-27.46315574645996	-311.3397827148437	-35.27306365966797	16.057506561279297	76.48759460449219	-0.0	-0.0	-0.0	61756.921875	-16359.537109375	2945.484130859375
0.0075	-0.0	-0.0	-0.0	-11.53452968597412	58.248661041259766	-452.7167663574219	7.519119262695312	-27.41081047058105	-308.9796447753906	-35.43584060668945	16.07802391052246	75.35118103027344	-0.0	-0.0	-0.0	61418.6484375	-16382.1982421875	2926.34375
0.008	-0.0	-0.0	-0.0	-11.235365867614746	58.76321029663086	-456.7657775878906	7.957785129547119	-26.94316864013672	-307.642578125	-35.39398193359375	16.252750396728516	74.95926666259766	-0.0	-0.0	-0.0	60972.5546875	-16447.6171875	3022.850341796875
0.0085	-0.0	-0.0	-0.0	-11.775787353515623	59.397586822509766	-457.4927062988281	7.895259857177734	-26.69914436340332	-304.2751159667969	-35.067718505859375	16.141759872436523	75.30961608886719	-0.0	-0.0	-0.0	60661.6328125	-16619.61328125	3035.031982421875
0.009000000000000001	-0.0	-0.0	-0.0	-11.59205150604248	60.20474624633789	-461.606201171875	8.156160354614258	-26.38221549987793	-301.461669921875	-35.42013931274414	16.11001205444336	76.05379486083984	-0.0	-0.0	-0.0	60102.296875	-16561.390625	2977.724365234375
0.0095	-0.0	-0.0	-0.0	-11.455921173095703	60.608673095703125	-464.3886413574219	8.130040168762207	-25.95132827758789	-300.7429504394531	-35.226036071777344	16.18897247314453	76.28083038330078	-0.0	-0.0	-0.0	59654.62890625	-16539.076171875	3115.7021484375
0.01	-0.0	-0.0	-0.0	-11.476571083068848	61.72473907470703	-466.2786560058594	8.370203971862793	-25.929887771606445	-298.0304870605469	-35.13676834106445	16.14212417602539	75.20597839355469	-0.0	-0.0	-0.0	59088.8203125	-16588.263671875	3124.587646484375
0.0105	-0.0	-0.0	-0.0	-11.29257583618164	61.85649871826172	-467.9634399414063	8.704622268676758	-25.228742599487305	-295.4842834472656	-35.43122482299805	15.738985061645508	75.4324722290039	-0.0	-0.0	-0.0	58737.47265625	-16700.1796875	3152.836669921875
0.011	-0.0	-0.0	-0.0	-11.15131378173828	62.365360260009766	-469.9797668457031	8.704850196838379	-24.84412002563477	-291.3958435058594	-35.16874694824219	16.104564666748047	75.35285186767578	-0.0	-0.0	-0.0	58336.5390625	-16793.244140625	3207.339599609375
0.0115	-0.0	-0.0	-0.0	-10.736929893493652	63.38019943237305	-473.56842041015625	8.959789276123047	-24.060518264770508	-288.4666748046875	-35.34789276123047	16.124670028686523	75.3531494140625	-0.0	-0.0	-0.0	57918.5	-16766.615234375	3212.59228515625
0.012	-0.0	-0.0	-0.0	-10.003311157226562	63.581642150878906	-476.3468627929688	8.939854621887207	-23.84685516357422	-287.1493835449219	-35.431522369384766	16.21451759338379	76.1800308227539	-0.0	-0.0	-0.0	57547.97265625	-16830.015625	3371.468994140625
0.0125	-0.0	-0.0	-0.0	-9.597054481506348	64.11050415039062	-477.9544372558594	8.953917503356934	-23.089195251464844	-284.2325439453125	-34.97826385498047	16.104564666748047	76.507568359375	-0.0	-0.0	-0.0	57041.86328125	-17092.525390625	3432.952880859375
0.013000000000000001	-0.0	-0.0	-0.0	-9.436697006225586	64.59387969970703	-479.6960144042969	9.466473579406738	-22.78699493408203	-283.1619873046875	-35.15718078613281	16.002174377441406	76.40673065185547	-0.0	-0.0	-0.0	56783.78125	-16997.259765625	3492.74755859375
0.0135	-0.0	-0.0	-0.0	-8.806227684020996	64.6769027709961	-480.14984130859375	9.168813705444336	-22.969709396362305	-280.3447570800781	-35.342384338378906	16.06614112854004	76.5340805053711	-0.0	-0.0	-0.0	56372.26171875	-17197.77734375	3441.71533203125
0.014	-0.0	-0.0	-0.0	-8.246055603027344	65.18611145019531	-483.150146484375	9.333955764770508	-22.70479393005371	-276.82537841796875	-35.36168670654297	16.07244873046875	75.15349578857422	-0.0	-0.0	-0.0	55831.53515625	-17272.43359375	3515.912841796875
0.0145	-0.0	-0.0	-0.0	-7.608397006988525	65.45354461669922	-485.6224365234375	9.428739547729492	-22.736425399780277	-274.5824279785156	-35.33609771728516	16.201025009155273	76.00587463378906	-0.0	-0.0	-0.0	55525.21875	-17242.89453125	3628.435546875
0.015	-0.0	-0.0	-0.0	-7.054094314575195	65.76531982421875	-489.7087097167969	9.23229694366455	-22.547239303588867	-272.3382568359375	-35.19575500488281	16.04678726196289	76.38199615478516	-0.0	-0.0	-0.0	54673.8671875	-17275.013671875	3602.918212890625
0.0155	-0.0	-0.0	-0.0	-7.276859283447266	66.5042724609375	-493.6192626953125	9.232332229614258	-22.118371963500977	-268.9715576171875	-35.386932373046875	16.393394470214844	75.90538024902344	-0.0	-0.0	-0.0	53992.3671875	-17284.25	3679.288818359375
0.016	-0.0	-0.0	-0.0	-6.882436275482178	67.0766830444336	-498.7380065917969	9.264190673828123	-21.73362922668457	-264.6826171875	-35.24663543701172	16.028108596801758	75.32894134521484	-0.0	-0.0	-0.0	53477.55078125	-17312.453125	3747.1708984375
0.0165	-0.0	-0.0	-0.0	-6.749679088592529	67.78450012207031	-499.2698364257813	9.580764770507812	-21.4805965423584	-262.6610107421875	-35.17084503173828	16.150588989257812	76.57987976074219	-0.0	-0.0	-0.0	53084.73046875	-17353.53125	3783.757568359375
0.017	-0.0	-0.0	-0.0	-6.684019088745117	68.14603424072266	-504.3141784667969	9.548968315124512	-21.40550422668457	-259.7425231933594	-35.597599029541016	16.104564666748047	75.229736328125	-0.0	-0.0	-0.0	52441.9765625	-17302.203125	3735.09033203125
